<svg width="57" height="57" viewBox="0 0 57 57" fill="none" xmlns="http://www.w3.org/2000/svg">
<mask id="mask0_292_1112" style="mask-type:luminance" maskUnits="userSpaceOnUse" x="0" y="0" width="57" height="57">
<path d="M57 0H0V57H57V0Z" fill="white"/>
</mask>
<g mask="url(#mask0_292_1112)">
<path d="M55.675 24.0716H39.2598L50.9176 12.4137C51.4245 11.9069 51.4245 11.0443 50.9888 10.6086L46.3825 6.00234C45.8757 5.49548 45.1554 5.64665 44.6574 6.14462L32.9373 17.8647V1.32496C32.9284 0.613572 32.3148 0 31.7012 0H25.1831C24.4718 0 24.0627 0.613572 24.0627 1.32496V17.7402L12.4137 6.08237C11.9069 5.57551 11.0443 5.57551 10.6086 6.01123L6.00234 10.6175C5.49548 11.1243 5.64665 11.8446 6.14462 12.3426L17.8647 24.0627H1.12044C0.409048 24.0716 0 24.4718 0 25.1831V31.808C0 32.3148 0.409048 32.9284 1.12044 32.9284H17.8647L6.07348 44.7197C5.56661 45.2265 5.56661 45.8045 6.07348 46.3025L10.7509 50.9799C11.1154 51.3445 11.8357 51.4867 12.3337 50.9799L24.0627 39.2509V55.8707C24.0627 56.5821 24.4718 56.9911 25.1831 56.9911H31.808C32.3148 56.9911 32.9284 56.5821 32.9284 55.8707V39.1264L44.7197 50.9176C45.2265 51.4245 45.8045 51.4245 46.3025 50.9176L50.9799 46.2402C51.3445 45.8757 51.4867 45.1554 50.9799 44.6574L39.2509 32.9284H55.6661C56.3775 32.9284 56.9911 32.3148 56.9911 31.7012V25.1831C56.9911 24.4718 56.3775 24.0627 55.6661 24.0627" fill="url(#paint0_linear_292_1112)"/>
</g>
<defs>
<linearGradient id="paint0_linear_292_1112" x1="28.4956" y1="0" x2="28.4956" y2="56.9911" gradientUnits="userSpaceOnUse">
<stop stop-color="#FCD064"/>
<stop offset="1" stop-color="#F7B717"/>
</linearGradient>
</defs>
</svg>
